<svg id="Layer_1" data-name="Layer 1" xmlns="http://www.w3.org/2000/svg" xmlns:xlink="http://www.w3.org/1999/xlink" viewBox="0 0 50 50"><defs><style>.cls-1{fill:url(#linear-gradient);}.cls-2{fill:#fff;}</style><linearGradient id="linear-gradient" x1="298.41" y1="-291.41" x2="330.25" y2="-316.7" gradientTransform="matrix(1, 0, 0, -1, -288, -278)" gradientUnits="userSpaceOnUse"><stop offset="0" stop-color="#9013fe"/><stop offset="1" stop-color="#6610f2"/></linearGradient></defs><title>Booststrap</title><path class="cls-1" d="M10.79,14.27a3.63,3.63,0,0,1,3.55-3.8H35.66a3.63,3.63,0,0,1,3.55,3.8,20.58,20.58,0,0,0,.64,6.36c.62,2,1.67,3.28,3.38,3.44v1.86c-1.71.16-2.76,1.43-3.38,3.44a20.58,20.58,0,0,0-.64,6.36,3.63,3.63,0,0,1-3.55,3.8H14.34a3.63,3.63,0,0,1-3.55-3.8,20.28,20.28,0,0,0-.64-6.36c-.62-2-1.67-3.28-3.38-3.44V24.07c1.71-.16,2.76-1.43,3.38-3.44A20.28,20.28,0,0,0,10.79,14.27Z"/><path class="cls-2" d="M27.59,24.57v-.08a3.46,3.46,0,0,0,2.82-3.37c0-2.33-1.84-3.85-4.65-3.85H19.44V32.72h6.35c3.37,0,5.4-1.64,5.4-4.37A3.76,3.76,0,0,0,27.59,24.57ZM21.9,19.23h3.27c1.77,0,2.78.79,2.78,2.23s-1.17,2.39-3.3,2.39H21.9Zm3.39,11.53H21.9V25.68h3.24c2.33,0,3.54.85,3.54,2.53S27.5,30.76,25.29,30.76Z"/></svg>