<svg id="Layer_1" data-name="Layer 1" xmlns="http://www.w3.org/2000/svg" xmlns:xlink="http://www.w3.org/1999/xlink" viewBox="0 0 50 50"><defs><style>.cls-1{fill:url(#linear-gradient);}.cls-2{fill:url(#linear-gradient-2);}.cls-3{fill:#2062af;}.cls-4{fill:#3c9cd7;}.cls-5{fill:#fff;}.cls-6{mask:url(#mask);}.cls-7{fill:url(#linear-gradient-5);}.cls-8{mask:url(#mask-2);}.cls-9{fill:url(#linear-gradient-6);}.cls-10{fill:url(#linear-gradient-7);}.cls-11{fill-opacity:0.05;}.cls-12{fill:url(#linear-gradient-8);}</style><linearGradient id="linear-gradient" x1="12582.81" y1="-14075.75" x2="12582.81" y2="-14329.04" gradientTransform="matrix(0.02, 0, 0, -0.02, -288, -326.77)" gradientUnits="userSpaceOnUse"><stop offset="0" stop-color="#fff" stop-opacity="0"/><stop offset="0.39" stop-color="#fff"/><stop offset="1" stop-color="#fff" stop-opacity="0.83"/></linearGradient><linearGradient id="linear-gradient-2" x1="12899.28" y1="-13939.43" x2="12899.28" y2="-14202.71" xlink:href="#linear-gradient"/><mask id="mask" x="17.47" y="19.14" width="7.54" height="6.25" maskUnits="userSpaceOnUse"><g id="id0"><path class="cls-1" d="M17.47,19.14H25v6.25H17.47Z"/></g></mask><linearGradient id="linear-gradient-5" x1="12582.81" y1="-14075.75" x2="12582.81" y2="-14329.04" gradientTransform="matrix(0.02, 0, 0, -0.02, -288, -326.77)" gradientUnits="userSpaceOnUse"><stop offset="0" stop-color="#d1d3d4"/><stop offset="0.39" stop-color="#d1d3d4"/><stop offset="1" stop-color="#d1d3d4"/></linearGradient><mask id="mask-2" x="24.98" y="15.79" width="8.07" height="6.5" maskUnits="userSpaceOnUse"><g id="id2"><path class="cls-2" d="M25,15.79h8.07v6.5H25Z"/></g></mask><linearGradient id="linear-gradient-6" x1="12899.28" y1="-13939.43" x2="12899.28" y2="-14202.71" xlink:href="#linear-gradient-5"/><linearGradient id="linear-gradient-7" x1="12430.48" y1="-14442.01" x2="13038.82" y2="-14442.01" gradientTransform="matrix(0.02, 0, 0, -0.02, -288, -326.77)" gradientUnits="userSpaceOnUse"><stop offset="0" stop-color="#e8e7e5"/><stop offset="1" stop-color="#fff"/></linearGradient><linearGradient id="linear-gradient-8" x1="12402.49" y1="-14003.88" x2="13062.95" y2="-14003.88" xlink:href="#linear-gradient-7"/></defs><title>CSS</title><g id="id2-2" data-name="id2"><path class="cls-2" d="M25,15.79h8.07v6.5H25Z"/></g><g id="id0-2" data-name="id0"><path class="cls-1" d="M17.47,19.14H25v6.25H17.47Z"/></g><g id="Layer_1-2" data-name="Layer_1"><g id="_513085304" data-name=" 513085304"><path class="cls-3" d="M35.49,36.7,25,39.53,14.51,36.7,12.08,10.47H37.92Z"/><path class="cls-4" d="M25,12.6V37.28h0L33.52,35l2-22.4Z"/><path class="cls-5" d="M25,19.15l-7.51,3.13.25,3.1L25,22.27,32.71,19,33,15.8Z"/><g class="cls-6"><path class="cls-7" d="M17.48,22.28l.25,3.1L25,22.27V19.15Z"/></g><g class="cls-8"><path class="cls-9" d="M33,15.8l-8,3.35v3.12L32.71,19Z"/></g><path class="cls-10" d="M17.49,22.28l.25,3.1,11.14,0-.25,4.12-3.66,1-3.53-.89-.21-2.57H18l.43,4.95L25,34l6.59-1.92.85-9.83Z"/><path class="cls-11" d="M25,22.28H17.48l.25,3.1,7.26,0Zm0,8.29h0l-3.52-.89-.21-2.57H17.94l.43,4.95L25,34Z"/><path class="cls-12" d="M16.8,15.8H33L32.71,19H17.2Z"/><path class="cls-11" d="M25,15.8H16.8L17.2,19H25Z"/></g></g></svg>