<svg id="Layer_1" data-name="Layer 1" xmlns="http://www.w3.org/2000/svg" viewBox="0 0 50 50"><defs><style>.cls-1{fill:#fff;}</style></defs><title>express js</title><circle cx="25" cy="25" r="14.53"/><path class="cls-1" d="M35.38,30.71a1.33,1.33,0,0,1-1.65-.62l-3-4.12-.44-.58L26.85,30.1a1.27,1.27,0,0,1-1.56.61l4.45-6-4.14-5.4a1.37,1.37,0,0,1,1.64.57l3.09,4.17,3.11-4.15A1.25,1.25,0,0,1,35,19.35l-1.61,2.13L31.2,24.32a.59.59,0,0,0,0,.86ZM14.63,24.63,15,22.84A5,5,0,0,1,22.86,20c1.63,1.29,2,3.11,2,5.16H15.58c-.13,3.67,2.51,5.89,5.89,4.76a3.51,3.51,0,0,0,2.23-2.48c.17-.58.47-.68,1-.51a4.67,4.67,0,0,1-2.24,3.42,5.42,5.42,0,0,1-6.31-.81,5.61,5.61,0,0,1-1.42-3.31c0-.21-.08-.4-.11-.6v-1Zm1-.24H24c-.06-2.66-1.71-4.55-4-4.57-2.49,0-4.27,1.83-4.38,4.57Z"/></svg>