<svg id="Layer_1" data-name="Layer 1" xmlns="http://www.w3.org/2000/svg" viewBox="0 0 50 50"><defs><style>.cls-1{fill:#e44d26;}.cls-2{fill:#f16529;}.cls-3{fill:#ebebeb;}.cls-4{fill:#fff;}</style></defs><title>HTML</title><polygon class="cls-1" points="37.81 10.47 35.48 36.62 24.98 39.53 14.52 36.63 12.19 10.47 37.81 10.47"/><polygon class="cls-2" points="25 37.31 33.48 34.96 35.47 12.61 25 12.61 25 37.31"/><path class="cls-3" d="M20.46,19H25v-3.2H17l.07.86.79,8.84H25V22.31H20.76L20.46,19Zm.72,8.1H18l.45,5L25,34h0V30.64h0l-3.58-1-.23-2.56Z"/><path class="cls-4" d="M25,25.52h4l-.37,4.16-3.58,1V34l6.58-1.82,0-.55.76-8.44.08-.86H25v3.21ZM25,19h7.75l.06-.72L33,16.68l.07-.86H25V19Z"/></svg>