<svg id="Layer_1" data-name="Layer 1" xmlns="http://www.w3.org/2000/svg" viewBox="0 0 50 50"><defs><style>.cls-1{fill:#f7df1e;}</style></defs><title>JavaScript</title><polygon class="cls-1" points="10.47 10.47 39.53 10.47 39.53 39.53 10.47 39.53 10.47 10.47"/><path d="M18.11,34.75l2.22-1.34c.43.76.82,1.4,1.76,1.4s1.46-.35,1.46-1.71V23.81h2.73v9.33c0,2.82-1.65,4.11-4.07,4.11a4.23,4.23,0,0,1-4.1-2.5Zm9.66-.29L30,33.18a3,3,0,0,0,2.69,1.65c1.13,0,1.85-.56,1.85-1.34,0-.94-.74-1.27-2-1.82l-.69-.29c-2-.84-3.27-1.89-3.27-4.11,0-2.05,1.56-3.61,4-3.61a4,4,0,0,1,3.88,2.18l-2.12,1.37A1.86,1.86,0,0,0,32.58,26a1.18,1.18,0,0,0-1.3,1.17c0,.81.5,1.15,1.67,1.65l.69.3c2.32,1,3.62,2,3.62,4.29,0,2.46-1.93,3.8-4.52,3.8a5.24,5.24,0,0,1-5-2.79Zm0,0Z"/></svg>