<svg id="Layer_1" data-name="Layer 1" xmlns="http://www.w3.org/2000/svg" viewBox="0 0 50 50"><defs><style>.cls-1{fill:#21609b;}</style></defs><title>Jquery</title><path class="cls-1" d="M39,32l-.13.34c-2.23,4.36-6.2,7-11.85,7.15a16.78,16.78,0,0,1-6.81-1.36A17.62,17.62,0,0,1,12,30.45c-2.34-4.53-2.76-10.83,2.11-15.54.07,0-.59,1-.52,1l-.13.44c-3.51,11,7.29,20.38,17.79,19.3A13.78,13.78,0,0,0,39,32Zm0,0Z"/><path class="cls-1" d="M32.63,27.5a10.08,10.08,0,0,0,7-2.95c-1.43,3.63-5.57,6-11.12,5.22-4.65-.62-9.08-5.3-9.53-10-.34-3.41.85-5.44,2.81-7.91a8.47,8.47,0,0,0-1,2.92c-.74,7.38,5.9,12.67,11.8,12.71Zm0,0Z"/><path class="cls-1" d="M39.4,18.34a8.24,8.24,0,0,1-3.82,2.94A7.28,7.28,0,0,1,27.41,18a10.94,10.94,0,0,1-.65-1.47c-.54-1.83-.29-4.6,1.31-6a7.61,7.61,0,0,0-.3,4,9,9,0,0,0,1.09,2.39A6.27,6.27,0,0,0,31.36,19a7.62,7.62,0,0,0,1.26.6c1,.3,3.24,1.11,6.78-1.3Zm0,0Z"/></svg>