<svg id="Layer_1" data-name="Layer 1" xmlns="http://www.w3.org/2000/svg" viewBox="0 0 50 50"><defs><style>.cls-1{fill:#9f3232;}</style></defs><title>mongoose</title><path class="cls-1" d="M42.35,24.3H38.89a1.82,1.82,0,0,0,.18.81,1.34,1.34,0,0,0,1.74.68,1.23,1.23,0,0,0,.62-.67l.08-.18.79.1a1.76,1.76,0,0,1-.95,1.24,2.37,2.37,0,0,1-2.47-.2,2,2,0,0,1-.62-.83s0,0,0,.05a1.34,1.34,0,0,1-.83,1,2.58,2.58,0,0,1-2.14,0,1.43,1.43,0,0,1-.74-.89l0-.07v0a2.08,2.08,0,0,1-2.1,1.21,2,2,0,0,1-1.92-1.45c-.08.17-.14.34-.23.49a1.92,1.92,0,0,1-1.28.9,2.22,2.22,0,0,1-1.44-.1,1.81,1.81,0,0,1-1.11-1.21,3.28,3.28,0,0,1,0-2.12A1.9,1.9,0,0,1,28,21.74a2.16,2.16,0,0,1,1.8.42,2.06,2.06,0,0,1,.68,1,2.17,2.17,0,0,1,4.1-.05,3.11,3.11,0,0,1,.06-.44,1.28,1.28,0,0,1,1-.91,2.73,2.73,0,0,1,1.6.06A1.27,1.27,0,0,1,38.07,23c-.14,0-.28.05-.43.06s-.21.06-.28,0-.07-.16-.11-.24a.85.85,0,0,0-.74-.48,4.09,4.09,0,0,0-.61,0,.65.65,0,0,0-.51.3.44.44,0,0,0,.09.62,1.22,1.22,0,0,0,.36.18l1.63.49a1.09,1.09,0,0,1,.6.44c0-.25,0-.47,0-.69a2.05,2.05,0,0,1,1.63-2,2.08,2.08,0,0,1,2,.54,2,2,0,0,1,.56,1.16C42.32,23.72,42.32,24,42.35,24.3Zm-12.58-.2h0a8.17,8.17,0,0,0-.17-.86,1.29,1.29,0,0,0-2.45,0,2.65,2.65,0,0,0,0,1.82,1.3,1.3,0,0,0,2.36.17A2.32,2.32,0,0,0,29.77,24.1Zm4.1-.07c0-.1,0-.27,0-.44a2.24,2.24,0,0,0-.1-.37,1.27,1.27,0,0,0-1.19-.88,1.25,1.25,0,0,0-1.25.85,2.68,2.68,0,0,0,0,1.85,1.3,1.3,0,0,0,2.36.15A2.51,2.51,0,0,0,33.87,24Zm1.31.9s0,0,0,.05,0,0,0,0a1,1,0,0,0,.85.84,1.44,1.44,0,0,0,1-.13.62.62,0,0,0,.35-.64c0-.28-.23-.39-.46-.47h0c-.36-.1-.72-.18-1.07-.29a8.6,8.6,0,0,1-.84-.33,1.11,1.11,0,0,1-.43-.48A4.82,4.82,0,0,1,34.56,25Zm6.33-1.26a1.3,1.3,0,0,0-.68-1.2,1.25,1.25,0,0,0-1.36.11,1.34,1.34,0,0,0-.54,1.09Z"/><path class="cls-1" d="M8.41,26.41H7.65V21.82h.68v.59h0l.1-.12a1.68,1.68,0,0,1,2-.42,1,1,0,0,1,.48.49l.06.13.27-.31A1.67,1.67,0,0,1,13.37,22a1.27,1.27,0,0,1,.51,1.11c0,1.09,0,2.17,0,3.26a.28.28,0,0,1,0,.09h-.75V23.63c0-.17,0-.35,0-.52a.78.78,0,0,0-.93-.74,1.07,1.07,0,0,0-1,1.11c0,.92,0,1.84,0,2.75v.18h-.77v-.16c0-.91,0-1.83,0-2.75a2.59,2.59,0,0,0,0-.48.72.72,0,0,0-.88-.65,1.07,1.07,0,0,0-1,1,5.17,5.17,0,0,0,0,.68c0,.74,0,1.48,0,2.21Z"/><path class="cls-1" d="M25.48,22.32v-.5h.7s0,.07,0,.11c0,1.44,0,2.87,0,4.31a3.58,3.58,0,0,1-.1.8,1.49,1.49,0,0,1-1,1.07A2.58,2.58,0,0,1,23,28a1.21,1.21,0,0,1-.66-1.21l.7.1s.05,0,.06.08a.7.7,0,0,0,.52.57,1.71,1.71,0,0,0,1.2,0,.9.9,0,0,0,.57-.7,7.93,7.93,0,0,0,.08-1h0l-.06.06a1.63,1.63,0,0,1-1.56.48A1.83,1.83,0,0,1,22.27,25a2.89,2.89,0,0,1,.16-2.25,1.75,1.75,0,0,1,1.72-1,1.61,1.61,0,0,1,1.23.55l.06.09Zm-2.59,1.75a8.85,8.85,0,0,0,.16.87,1.18,1.18,0,0,0,1.14.84,1.16,1.16,0,0,0,1.1-.73,2.55,2.55,0,0,0,0-1.92,1.19,1.19,0,0,0-1.22-.79,1.21,1.21,0,0,0-1,.9C23,23.5,22.94,23.78,22.89,24.07Z"/><path class="cls-1" d="M18.27,24.1a7.15,7.15,0,0,1-.14.91,1.89,1.89,0,0,1-1.48,1.44,2.25,2.25,0,0,1-1.47-.1A2,2,0,0,1,14,24.84a3.5,3.5,0,0,1,0-1.61A2,2,0,0,1,16.1,21.7a2,2,0,0,1,1.66.77,2.1,2.1,0,0,1,.45,1.1c0,.17,0,.35,0,.52ZM17.46,24c0-.11,0-.29-.05-.46a2.24,2.24,0,0,0-.1-.37,1.29,1.29,0,0,0-1.21-.87,1.25,1.25,0,0,0-1.23.85,2.68,2.68,0,0,0,0,1.83,1.29,1.29,0,0,0,2.36.17A2.63,2.63,0,0,0,17.46,24Z"/><path class="cls-1" d="M18.33,21.81H19v.65a2.38,2.38,0,0,1,.18-.22,1.63,1.63,0,0,1,1.31-.53,1.66,1.66,0,0,1,1.08.34A1.19,1.19,0,0,1,22,23c0,1.14,0,2.28,0,3.44H21.3V23.67a4.36,4.36,0,0,0,0-.51.84.84,0,0,0-.74-.78,1.21,1.21,0,0,0-1.24.53,1.63,1.63,0,0,0-.19.87c0,.82,0,1.65,0,2.48v.15h-.76Z"/></svg>