<svg id="Layer_1" data-name="Layer 1" xmlns="http://www.w3.org/2000/svg" viewBox="0 0 50 50"><defs><style>.cls-1{fill:#689f63;}</style></defs><title>node js</title><path class="cls-1" d="M28.29,31.06c-4.65,0-5.63-2.13-5.63-3.93a.31.31,0,0,1,.31-.31h1.37a.32.32,0,0,1,.31.26c.2,1.41.82,2.11,3.64,2.11,2.24,0,3.2-.5,3.2-1.7,0-.68-.28-1.19-3.76-1.53C24.81,25.67,23,25,23,22.7c0-2.15,1.81-3.43,4.85-3.43,3.41,0,5.1,1.18,5.31,3.73a.29.29,0,0,1-.08.23.33.33,0,0,1-.23.1H31.48a.31.31,0,0,1-.3-.24c-.33-1.47-1.14-1.94-3.33-1.94-2.45,0-2.73.85-2.73,1.49s.34,1,3.64,1.44,4.83,1.05,4.83,3.35-1.94,3.65-5.31,3.65v0ZM25,39.53a2.18,2.18,0,0,1-1.11-.3l-3.56-2.1c-.53-.3-.27-.41-.09-.47a7.49,7.49,0,0,0,1.61-.73.27.27,0,0,1,.26,0l2.73,1.62a.38.38,0,0,0,.33,0l10.65-6.15a.32.32,0,0,0,.16-.29V18.85a.34.34,0,0,0-.16-.29L25.17,12.41a.32.32,0,0,0-.33,0L14.2,18.56a.33.33,0,0,0-.17.29V31.13a.34.34,0,0,0,.17.29l2.92,1.68c1.58.8,2.55-.14,2.55-1.07V19.9a.3.3,0,0,1,.31-.31h1.34a.31.31,0,0,1,.31.31V32c0,2.11-1.15,3.32-3.15,3.32A4.59,4.59,0,0,1,16,34.69l-2.8-1.61a2.26,2.26,0,0,1-1.12-1.95V18.85a2.26,2.26,0,0,1,1.12-2l10.66-6.14a2.34,2.34,0,0,1,2.24,0l10.64,6.15a2.23,2.23,0,0,1,1.12,1.94V31.14a2.26,2.26,0,0,1-1.12,1.94L26.13,39.23a2.32,2.32,0,0,1-1.13.29Zm0,0Z"/></svg>